<svg xmlns="http://www.w3.org/2000/svg" viewBox="0 0 400 83.35"><defs><style>.cls-1{fill:#fff;}</style></defs><title>Asset 44</title><g id="Layer_2" data-name="Layer 2"><g id="Layer_1-2" data-name="Layer 1"><path class="cls-1" d="M162,50.61c11.71-2.38,15.57-10.9,15.57-19.38,0-10.66-7.67-20.35-22.19-20.43-9.8,0-19.57-.08-29.34-.08V72.47h11.63V51.85h11.8l17.9,20.62h13.28v-.78Zm-24.32-9.23V21.65h17.71c7.31,0,10.55,4.91,10.55,9.85s-3.16,9.88-10.55,9.88Z"/><path class="cls-1" d="M212.32,47.1h33.39V36.25H200.8V72.47H247V61H212.32ZM200.8,10.8V22.08H247V10.8Z"/><path class="cls-1" d="M294.19,10.8H270V72.47h24.24c21.57,0,31.09-15.76,30.82-31.36C324.75,25.86,315.33,10.8,294.19,10.8Zm0,50.48H281.5V21.81h12.69c13.39,0,19,9.61,19.3,19.22C313.73,51.07,308.2,61.27,294.19,61.27Z"/><path class="cls-1" d="M388.45,10.88V46.21c0,10.58-5.45,17-15.06,17s-16-5.88-16-17V10.88H345.91V46.21c0,18.6,12.61,27.59,27.4,27.59,15.49,0,26.7-9.34,26.7-27.59V10.88Z"/><polygon class="cls-1" points="0 83.35 0 30.89 27.22 83.35 0 83.35"/><polygon class="cls-1" points="0 14.1 0 0 84.06 83.35 51.34 83.35 0 14.1"/><path class="cls-1" d="M75.45,27.57a27.43,27.43,0,0,1-4.46,15L12.29,0H47.88A27.57,27.57,0,0,1,75.45,27.57Z"/></g></g></svg>